# AST/ASF file generated using VICON BodyLanguage
# -----------------------------------------------
:version 1.10
:name VICON
:units
  mass 1.0
  length 0.45
  angle deg
:documentation
   .ast/.asf automatically generated from VICON data using
   VICON BodyBuilder and BodyLanguage model FoxedUp or BRILLIANT.MOD
:root
   order TX TY TZ RX RY RZ
   axis XYZ
   position 0 0 0  
   orientation 0 0 0 
:bonedata
  begin
     id 1 
     name lhipjoint
     direction 0.650112 -0.723553 0.232005 
     length 2.45805 
     axis 0 0 0  XYZ
  end
  begin
     id 2 
     name lfemur
     direction 0.34202 -0.939693 0  
     length 7.00073  
     axis 0 0 20  XYZ
    dof rx ry rz
    limits (-160.0 20.0)
           (-70.0 70.0)
           (-60.0 70.0)
  end
  begin
     id 3 
     name ltibia
     direction 0.34202 -0.939693 0   
     length 7.8748   
     axis 0 0 20   XYZ
    dof rx
    limits (-10.0 170.0)
  end
  begin
     id 4 
     name lfoot
     direction 0.0542825 -0.14914 0.987325   
     length 1.75978   
     axis -90 7.62852e-016 20   XYZ
    dof rx rz
    limits (-45.0 90.0)
           (-70.0 20.0)
  end
  begin
     id 5 
     name ltoes
     direction 1.53509e-011 -4.21906e-011 1   
     length 0.893912   
     axis -90 7.62852e-016 20   XYZ
    dof rx
    limits (-90.0 20.0)
  end
  begin
     id 6 
     name rhipjoint
     direction -0.637897 -0.733345 0.235145   
     length 2.42522  
     axis 0 0 0  XYZ 
  end
  begin
     id 7 
     name rfemur
     direction -0.34202 -0.939693 0   
     length 7.02549   
     axis 0 0 -20   XYZ
    dof rx ry rz
    limits (-160.0 20.0)
           (-70.0 70.0)
           (-70.0 60.0)
  end
  begin
     id 8 
     name rtibia
     direction -0.34202 -0.939693 0   
     length 7.71512   
     axis 0 0 -20   XYZ
    dof rx
    limits (-10.0 170.0)
 end
 begin
     id 9 
     name rfoot
     direction -0.0822618 -0.226012 0.970645   
     length 1.90014  
     axis -90 -7.62852e-016 -20   XYZ
    dof rx rz
    limits (-45.0 90.0)
           (-20.0 70.0)
  end
  begin
     id 10 
     name rtoes
     direction -1.53542e-011 -4.21872e-011 1   
     length 0.957341   
     axis -90 -7.62852e-016 -20   XYZ
    dof rx
    limits (-90.0 20.0)
  end
  begin
     id 11 
     name lowerback
     direction -0.0022947 0.999774 -0.0211557   
     length 1.89909   
     axis 0 0 0   XYZ
    dof rx ry rz
    limits (-20.0 45.0)
           (-30.0 30.0)
           (-30.0 30.0)
  end
  begin
     id 12 
     name upperback
     direction 0.0107737 0.998635 0.0511027   
     length 1.8853   
     axis 0 0 0   XYZ
    dof rx ry rz
    limits (-20.0 45.0)
           (-30.0 30.0)
           (-30.0 30.0)
  end
  begin
     id 13 
     name thorax
     direction 0.011824 0.998136 0.0598754   
     length 1.88911   
     axis 0 0 0   XYZ
    dof rx ry rz
    limits (-20.0 45.0)
           (-30.0 30.0)
           (-30.0 30.0)
  end
  begin
     id 14 
     name lowerneck
     direction -0.0685355 0.990319 0.120714   
     length 1.91222   
     axis 0 0 0   XYZ
    dof rx ry rz
    limits (-20.0 45.0)
           (-30.0 30.0)
           (-30.0 30.0)
  end
  begin
     id 15 
     name upperneck
     direction 0.0886204 0.955665 -0.280805   
     length 1.92526   
     axis 0 0 0   XYZ
    dof rx ry rz
    limits (-20.0 45.0)
           (-30.0 30.0)
           (-30.0 30.0)
  end
  begin
     id 16
     name head
     direction 0.0233423 0.993502 -0.111393  
     length 1.96056  
     axis 0 0 0   XYZ
    dof rx ry rz
    limits (-20.0 45.0)
           (-30.0 30.0)
           (-30.0 30.0)
  end
  begin
     id 17 
     name lclavicle
     direction 0.941873 0.32922 0.0670041  
     length 3.31705  
     axis 0 0 0   XYZ
    dof ry rz
    limits (-20.0 10.0)
           (0.0 20.0)
  end
  begin
     id 18 
     name lhumerus
     direction 1 -4.4898e-011 3.38707e-028   
     length 5.29277   
     axis 180 -30 -90   XYZ
    dof rx ry rz
    limits (-60.0 90.0)
           (-90.0 90.0)
           (-90.0 90.0)
  end
  begin
     id 19
     name lradius
     direction 1 -4.48952e-011 1.63213e-028   
     length 2.85226   
     axis 180 -30 -90   XYZ
    dof rx
    limits (-10.0 170.0)
  end
  begin
     id 20
     name lwrist
     direction 1 -4.49001e-011 1.27856e-027   
     length 1.42613   
     axis -1.61767e-015 90 90   XYZ
    dof ry
    limits (-180.0 0.0)
 end
  begin
     id 21 
     name lhand
     direction 1 -4.48976e-011 2.55931e-027   
     length 0.602097   
     axis -1.63363e-015 90 90   XYZ
    dof rx rz
    limits (-90.0 90.0)
           (-45.0 45.0)
  end
  begin
     id 22 
     name lfingers
     direction 1 -4.48986e-011 5.11684e-027   
     length 0.485426   
     axis -3.26723e-015 90 90   XYZ
    dof rx
    limits (0.0 90.0)
  end
  begin
     id 23
     name lthumb
     direction 0.707107 -6.34915e-011 0.707107   
     length 0.696978   
     axis -90 45 -2.25915e-014   XYZ
    dof rx rz
    limits (-45.0 45.0)
           (-45.0 45.0)
  end
  begin
     id 24 
     name rclavicle
     direction -0.939974 0.327078 0.0973096   
     length 3.10337  
     axis 0 0 0   XYZ 
    dof ry rz
    limits (-10.0 20.0)
           (-20.0 0.0)
  end
  begin
     id 25 
     name rhumerus
     direction -1 -4.48975e-011 1.83745e-027  
     length 5.13304   
     axis 180 30 90   XYZ
    dof rx ry rz
    limits (-90.0 60.0)
           (-90.0 90.0)
           (-90.0 90.0)
  end
  begin
     id 26 
     name rradius
     direction -1 -4.48977e-011 7.1775e-029   
     length 2.74305   
     axis 180 30 90   XYZ
    dof rx
    limits (-10.0 170.0)
  end
  begin
     id 27 
     name rwrist
     direction -1 -4.48977e-011 1.27963e-027   
     length 1.37152   
     axis -1.61767e-015 -90 -90   XYZ
    dof ry
    limits (-180.0 0.0)
  end
  begin
     id 28
     name rhand
     direction -1 -4.4888e-011 2.56782e-027   
     length 0.767976   
     axis -1.63363e-015 -90 -90   XYZ
    dof rx rz
    limits (-90.0 90.0)
           (-45.0 45.0)
  end
  begin
     id 29
     name rfingers
     direction -1 -4.48947e-011 5.12384e-027   
     length 0.619162   
     axis -3.26723e-015 -90 -90   XYZ
    dof rx
    limits (0.0 90.0)
  end
  begin
     id 30
     name rthumb
     direction -0.707107 -6.34857e-011 0.707107   
     length 0.888997   
     axis -90 -45 2.25915e-014   XYZ
    dof rx rz
    limits (-45.0 45.0)
           (-45.0 45.0)
  end
:hierarchy
  begin
    root lhipjoint rhipjoint lowerback
    lhipjoint lfemur
    lfemur ltibia
    ltibia lfoot
    lfoot ltoes
    rhipjoint rfemur
    rfemur rtibia
    rtibia rfoot
    rfoot rtoes
    lowerback upperback
    upperback thorax
    thorax lowerneck lclavicle rclavicle
    lowerneck upperneck
    upperneck head
    lclavicle lhumerus
    lhumerus lradius
    lradius lwrist
    lwrist lhand lthumb
    lhand lfingers
    rclavicle rhumerus
    rhumerus rradius
    rradius rwrist
    rwrist rhand rthumb
    rhand rfingers
  end

#!OML:ASF F:\VICON\USERDATA\INSTALL\rory3\rory3.ASF
:FULLY-SPECIFIED
:DEGREES
1895
root 0.16036 16.8341 0.772304 -12.6555 4.85639 -3.64399
lowerback -8.79242 0.0612394 -4.26036
upperback 0.0307908 0.469256 0.972331
thorax 4.92892 0.116181 3.47645
lowerneck 20.495 -18.2085 -25.8028
upperneck 17.3401 -33.1763 20.5135
head 10.4267 -17.7019 8.08346
rclavicle -2.5842e-015 -1.03368e-014
rhumerus 71.1143 -4.87695 -120.475
rradius 11.922
rwrist 92.7827
rhand 25.5018 5.77051
rfingers 7.12502
rthumb 49.6215 -15.6487
lclavicle -2.5842e-015 -1.03368e-014
lhumerus 76.3099 11.636 62.6018
lradius 109.915
lwrist 56.6957
lhand 47.5733 39.2372
lfingers 7.12502
lthumb 68.2887 39.7648
rfemur 17.6263 6.43414 25.5558
rtibia 16.4071
rfoot -20.1303 -14.2443
rtoes -21.6739
lfemur 10.022 -15.4743 -18.9805
ltibia 28.3476
lfoot -23.7416 4.49053
ltoes -15.8016
1896
root 0.158074 16.8334 0.76709 -12.6684 4.85554 -3.7969
lowerback -8.76969 0.0500291 -4.16839
upperback 0.036936 0.442356 1.00571
thorax 4.92529 0.104723 3.45578
lowerneck 20.6052 -18.1799 -25.8218
upperneck 17.1345 -33.1525 20.6617
head 10.3609 -17.7006 8.15644
rclavicle -6.36111e-015 -7.95139e-016
rhumerus 71.1974 -4.80415 -120.566
rradius 12.0764
rwrist 92.6271
rhand 25.2475 5.72092
rfingers 7.12502
rthumb 49.3883 -15.8172
lclavicle -6.36111e-015 -7.95139e-016
lhumerus 76.4217 11.3902 63.0386
lradius 109.97
lwrist 56.5794
lhand 47.4011 39.5524
lfingers 7.12502
lthumb 68.1655 40.3812
rfemur 17.6086 6.36191 25.7142
rtibia 16.3824
rfoot -19.9857 -14.2734
rtoes -22.1889
lfemur 9.90708 -15.4678 -18.7737
ltibia 28.4948
lfoot -23.8066 4.32414
ltoes -15.4236
1897
root 0.156457 16.8307 0.764071 -12.7467 4.85719 -3.86256
lowerback -8.6864 0.0877893 -4.11082
upperback 0.0518863 0.484978 0.974689
thorax 4.89078 0.128137 3.39514
lowerneck 20.6533 -18.2127 -25.7318
upperneck 17.0739 -33.1832 20.6869
head 10.328 -17.7143 8.15635
rclavicle 5.96354e-016 -1.19271e-014
rhumerus 71.3482 -4.87477 -120.637
rradius 12.2011
rwrist 92.4495
rhand 24.9326 5.95596
rfingers 7.12502
rthumb 49.0992 -15.7272
lclavicle 5.96354e-016 -1.19271e-014
lhumerus 76.5513 11.0174 63.5843
lradius 110.012
lwrist 56.4968
lhand 47.4529 39.759
lfingers 7.12502
lthumb 68.2026 40.4975
rfemur 17.6924 6.25017 25.7539
rtibia 16.3444
rfoot -19.9576 -14.202
rtoes -22.2621
lfemur 9.88565 -15.4528 -18.6991
ltibia 28.6507
lfoot -23.8679 4.39118
ltoes -15.9979
1898
root 0.154903 16.8277 0.759924 -12.8296 4.79995 -4.07899
lowerback -8.64356 0.143319 -3.88297
upperback 0.106657 0.53413 0.988982
thorax 4.92117 0.156178 3.28736
lowerneck 20.6022 -18.2456 -25.6823
upperneck 17.0944 -33.2269 20.7387
head 10.3576 -17.7278 8.15245
rclavicle 2.38542e-015 -1.51076e-014
rhumerus 71.5044 -4.92458 -120.698
rradius 12.3829
rwrist 92.0836
rhand 24.5324 6.01711
rfingers 7.12502
rthumb 48.7315 -15.847
lclavicle 2.38542e-015 -1.51076e-014
lhumerus 76.7168 10.6535 64.0765
lradius 110.086
lwrist 56.3951
lhand 47.4569 39.7404
lfingers 7.12502
lthumb 68.2055 40.472
rfemur 17.7143 6.17358 25.9759
rtibia 16.3676
rfoot -19.9612 -14.1123
rtoes -22.5485
lfemur 9.88447 -15.453 -18.4576
ltibia 28.7785
lfoot -23.9667 4.40829
ltoes -16.386
1899
root 0.154328 16.825 0.753457 -12.8274 4.80732 -4.17669
lowerback -8.63237 0.165289 -3.79052
upperback 0.137163 0.553965 0.98972
thorax 4.94583 0.167194 3.23849
lowerneck 20.5261 -18.2786 -25.6465
upperneck 17.1161 -33.2521 20.7298
head 10.3755 -17.7312 8.12989
rclavicle 7.7526e-015 2.38542e-015
rhumerus 71.6739 -4.90625 -120.747
rradius 12.504
rwrist 91.6485
rhand 24.1078 5.92251
rfingers 7.12502
rthumb 48.3408 -16.1297
lclavicle 7.7526e-015 2.38542e-015
lhumerus 76.8257 10.3412 64.5274
lradius 110.161
lwrist 56.1866
lhand 47.7174 39.2897
lfingers 7.12502
lthumb 68.3913 39.5625
rfemur 17.6397 6.121 26.0609
rtibia 16.4385
rfoot -20.023 -14.026
rtoes -22.6385
lfemur 9.79724 -15.437 -18.3115
ltibia 28.8585
lfoot -24.0489 4.20606
ltoes -15.6186
1900
root 0.15277 16.8248 0.748829 -12.8375 4.88118 -4.0211
lowerback -8.61134 0.167936 -3.98002
upperback 0.215068 0.580431 0.922021
thorax 5.01265 0.17349 3.27848
lowerneck 20.169 -18.3822 -25.4301
upperneck 17.2418 -33.265 20.5573
head 10.4016 -17.6959 8.00347
rclavicle -9.93923e-016 1.59028e-015
rhumerus 71.8566 -4.8987 -120.767
rradius 12.683
rwrist 91.187
rhand 23.6569 5.77898
rfingers 7.12502
rthumb 47.9253 -16.4686
lclavicle -9.93923e-016 1.59028e-015
lhumerus 76.9609 10.055 64.9677
lradius 110.228
lwrist 55.9807
lhand 47.9665 38.5668
lfingers 7.12502
lthumb 68.5676 38.3933
rfemur 17.6142 6.07397 25.8745
rtibia 16.5105
rfoot -20.0263 -13.9973
rtoes -22.283
lfemur 9.75595 -15.4363 -18.4777
ltibia 28.9188
lfoot -24.0182 4.10249
ltoes -15.2477
1901
root 0.151045 16.8246 0.744531 -12.8903 4.92983 -3.94188
lowerback -8.52175 0.192397 -4.08178
upperback 0.28542 0.623587 0.864865
thorax 5.03197 0.191274 3.28093
lowerneck 19.5373 -18.525 -25.1194
upperneck 17.7069 -33.2773 20.1362
head 10.5272 -17.6345 7.74925
rclavicle -5.1684e-015 -9.54166e-015
rhumerus 71.9935 -4.97014 -120.763
rradius 12.9364
rwrist 90.921
rhand 23.2901 5.79849
rfingers 7.12502
rthumb 47.5868 -16.6048
lclavicle -5.1684e-015 -9.54166e-015
lhumerus 77.1454 9.73205 65.5165
lradius 110.252
lwrist 55.8679
lhand 47.8501 38.424
lfingers 7.12502
lthumb 68.4854 38.4599
rfemur 17.6039 6.00995 25.7695
rtibia 16.6128
rfoot -20.0839 -13.9457
rtoes -22.0594
lfemur 9.76089 -15.4258 -18.5678
ltibia 28.9578
lfoot -23.9084 4.15214
ltoes -15.6778
1902
root 0.15112 16.8234 0.741497 -12.9386 4.91681 -4.00428
lowerback -8.50191 0.208886 -4.00439
upperback 0.354097 0.639895 0.828542
thorax 5.09247 0.199236 3.20155
lowerneck 19.2738 -18.5972 -24.9161
upperneck 17.817 -33.282 20.0144
head 10.5456 -17.605 7.65632
rclavicle 4.77083e-015 2.38542e-015
rhumerus 72.0946 -5.01442 -120.816
rradius 13.1749
rwrist 90.7718
rhand 22.9114 5.97401
rfingers 7.12502
rthumb 47.237 -16.5871
lclavicle 4.77083e-015 2.38542e-015
lhumerus 77.2555 9.46399 65.979
lradius 110.358
lwrist 55.7409
lhand 47.705 38.2864
lfingers 7.12502
lthumb 68.3825 38.5812
rfemur 17.5818 5.99297 25.8277
rtibia 16.7044
rfoot -20.2104 -13.9047
rtoes -21.9587
lfemur 9.78088 -15.3972 -18.4996
ltibia 28.9862
lfoot -23.9096 4.18923
ltoes -15.75
1903
root 0.150836 16.8208 0.739161 -12.9837 4.90002 -3.99961
lowerback -8.5104 0.211123 -4.02999
upperback 0.427346 0.648072 0.808961
thorax 5.17349 0.199712 3.19737
lowerneck 19.3963 -18.5554 -24.9553
upperneck 17.5404 -33.2474 20.2461
head 10.4694 -17.6002 7.76347
rclavicle 1.27222e-014 2.3059e-014
rhumerus 72.2079 -4.99127 -120.851
rradius 13.3611
rwrist 90.6438
rhand 22.4432 6.32257
rfingers 7.12502
rthumb 46.8039 -16.4295
lclavicle 1.27222e-014 2.3059e-014
lhumerus 77.2893 9.21262 66.3719
lradius 110.486
lwrist 55.4845
lhand 47.5395 38.1776
lfingers 7.12502
lthumb 68.2646 38.7646
rfemur 17.5906 5.90049 25.7805
rtibia 16.7491
rfoot -20.2188 -13.8767
rtoes -22.3389
lfemur 9.80724 -15.3392 -18.4976
ltibia 29.0318
lfoot -23.9341 4.15545
ltoes -15.6947
1904
root 0.149429 16.8203 0.732575 -13.0118 4.89756 -4.04989
lowerback -8.45416 0.235237 -3.99322
upperback 0.475214 0.675994 0.78802
thorax 5.19017 0.213605 3.15781
lowerneck 19.5084 -18.5655 -24.9381
upperneck 17.2879 -33.2647 20.4194
head 10.3951 -17.6158 7.8313
rclavicle 7.35503e-015 1.11319e-014
rhumerus 72.3673 -5.04333 -120.864
rradius 13.5118
rwrist 90.4267
rhand 21.8773 6.54224
rfingers 7.12502
rthumb 46.2797 -16.4349
lclavicle 7.35503e-015 1.11319e-014
lhumerus 77.3731 8.8497 66.8021
lradius 110.543
lwrist 55.1701
lhand 47.8348 38.1934
lfingers 7.12502
lthumb 68.4746 38.2567
rfemur 17.5649 5.88827 25.8412
rtibia 16.8088
rfoot -20.2295 -13.9131
rtoes -22.5644
lfemur 9.78332 -15.3493 -18.431
ltibia 29.0797
lfoot -24.0088 4.05094
ltoes -15.4238
1905
root 0.147237 16.8202 0.724781 -13.0085 4.9084 -4.10688
lowerback -8.42535 0.244375 -4.00469
upperback 0.524087 0.688882 0.789381
thorax 5.22403 0.218032 3.1674
lowerneck 19.5618 -18.5925 -24.9231
upperneck 17.1602 -33.3031 20.5141
head 10.3667 -17.6367 7.85922
rclavicle -1.37161e-014 1.27222e-014
rhumerus 72.4719 -5.10299 -120.839
rradius 13.7327
rwrist 90.1524
rhand 21.2925 6.74807
rfingers 7.12502
rthumb 45.7372 -16.4551
lclavicle -1.37161e-014 1.27222e-014
lhumerus 77.4996 8.49573 67.2826
lradius 110.604
lwrist 54.8116
lhand 48.2763 38.3662
lfingers 7.12502
lthumb 68.7849 37.6272
rfemur 17.4808 5.89924 25.9153
rtibia 16.9047
rfoot -20.225 -13.9572
rtoes -22.8463
lfemur 9.72678 -15.3546 -18.3426
ltibia 29.1018
lfoot -24.018 4.00593
ltoes -15.4979
1906
root 0.145563 16.8191 0.717939 -12.9903 4.99527 -4.01178
lowerback -8.39563 0.18832 -4.22298
upperback 0.555899 0.635463 0.791608
thorax 5.24342 0.184554 3.28623
lowerneck 19.5422 -18.5603 -24.9998
upperneck 17.1672 -33.2699 20.5259
head 10.3801 -17.6237 7.87499
rclavicle 1.98785e-016 1.98785e-014
rhumerus 72.4227 -5.1279 -120.745
rradius 14.0777
rwrist 89.8759
rhand 20.8926 6.94052
rfingers 7.12502
rthumb 45.3657 -16.4135
lclavicle 1.98785e-016 1.98785e-014
lhumerus 77.5132 8.256 67.718
lradius 110.699
lwrist 54.585
lhand 48.0939 38.4643
lfingers 7.12502
lthumb 68.6572 38.0596
rfemur 17.3993 5.85241 25.7931
rtibia 16.9946
rfoot -20.2433 -13.9994
rtoes -22.8481
lfemur 9.66404 -15.3583 -18.4323
ltibia 29.1134
lfoot -23.9316 4.01285
ltoes -15.6853
1907
root 0.144372 16.8196 0.713316 -12.981 5.05728 -3.94615
lowerback -8.37465 0.153765 -4.34915
upperback 0.577091 0.602393 0.777126
thorax 5.25599 0.164222 3.33809
lowerneck 19.5705 -18.4993 -25.0886
upperneck 17.1716 -33.2147 20.5701
head 10.3888 -17.6055 7.91502
rclavicle 1.59028e-014 1.98785e-014
rhumerus 72.3683 -5.14316 -120.715
rradius 14.378
rwrist 89.6801
rhand 20.4249 7.03255
rfingers 7.12502
rthumb 44.9307 -16.4942
lclavicle 1.59028e-014 1.98785e-014
lhumerus 77.4625 7.96747 68.0543
lradius 110.839
lwrist 54.3288
lhand 47.949 38.3301
lfingers 7.12502
lthumb 68.5553 38.1881
rfemur 17.3213 5.74846 25.6744
rtibia 17.1045
rfoot -20.3186 -13.9226
rtoes -22.5191
lfemur 9.63018 -15.3593 -18.4918
ltibia 29.1073
lfoot -23.8886 3.92852
ltoes -15.2495
1908
root 0.143458 16.82 0.708945 -13.0122 5.09286 -3.931
lowerback -8.33023 0.1464 -4.42347
upperback 0.618341 0.598548 0.781953
thorax 5.27403 0.158964 3.38444
lowerneck 19.5783 -18.4816 -25.1491
upperneck 17.142 -33.1867 20.5494
head 10.3754 -17.5966 7.92042
rclavicle 1.13307e-014 -7.95139e-015
rhumerus 72.3773 -5.17512 -120.662
rradius 14.6264
rwrist 89.5449
rhand 19.8666 7.18582
rfingers 7.12502
rthumb 44.4108 -16.5421
lclavicle 1.13307e-014 -7.95139e-015
lhumerus 77.4143 7.63231 68.5051
lradius 111.011
lwrist 53.9104
lhand 47.9015 38.0711
lfingers 7.12502
lthumb 68.5217 38.0149
rfemur 17.2853 5.65135 25.6194
rtibia 17.2124
rfoot -20.3633 -13.8517
rtoes -22.4568
lfemur 9.6266 -15.3737 -18.5175
ltibia 29.1196
lfoot -23.8849 3.90219
ltoes -15.2839
1909
root 0.142039 16.8201 0.703506 -13.0456 5.13287 -3.84396
lowerback -8.29736 0.183696 -4.51154
upperback 0.681733 0.661499 0.693471
thorax 5.3166 0.186576 3.34937
lowerneck 19.5589 -18.5526 -25.0075
upperneck 17.145 -33.2272 20.4474
head 10.3422 -17.6074 7.86103
rclavicle -1.13307e-014 1.51076e-014
rhumerus 72.4748 -5.34718 -120.658
rradius 14.8595
rwrist 89.3818
rhand 19.2826 7.3259
rfingers 7.12502
rthumb 43.8662 -16.6067
lclavicle -1.13307e-014 1.51076e-014
lhumerus 77.4711 7.21017 68.9096
lradius 111.149
lwrist 53.4802
lhand 47.8347 37.8785
lfingers 7.12502
lthumb 68.4745 37.9421
rfemur 17.2821 5.59061 25.5039
rtibia 17.261
rfoot -20.3358 -13.8594
rtoes -22.5864
lfemur 9.63068 -15.4299 -18.6394
ltibia 29.158
lfoot -23.8982 3.91057
ltoes -15.3412
